      <svg xmlns="http://www.w3.org/2000/svg" width="25" height="24" viewBox="0 0 25 24" fill="none">
        <path fill-rule="evenodd" clip-rule="evenodd" d="M11.8311 2.75C6.99856 2.75 3.08105 6.66751 3.08105 11.5C3.08105 16.3325 6.99856 20.25 11.8311 20.25C16.6635 20.25 20.5811 16.3325 20.5811 11.5C20.5811 6.66751 16.6635 2.75 11.8311 2.75ZM1.58105 11.5C1.58105 5.83908 6.17014 1.25 11.8311 1.25C17.492 1.25 22.0811 5.83908 22.0811 11.5C22.0811 14.0605 21.1422 16.4017 19.5899 18.1982L22.8614 21.4697C23.1543 21.7626 23.1543 22.2374 22.8614 22.5303C22.5685 22.8232 22.0936 22.8232 21.8007 22.5303L18.5293 19.2589C16.7328 20.8111 14.3916 21.75 11.8311 21.75C6.17014 21.75 1.58105 17.1609 1.58105 11.5Z" fill="#808080" stroke="black" stroke-width="0.5" stroke-linecap="round"/>
      </svg>